<svg width="17" height="21" viewBox="0 0 17 21" fill="none" xmlns="http://www.w3.org/2000/svg">
<path d="M3.13333 15.9935H13.7333C14.5778 15.9935 15.3111 15.6824 15.9333 15.0602C16.5556 14.4379 16.8667 13.7046 16.8667 12.8602V3.79349C16.8667 2.9046 16.5556 2.16015 15.9333 1.56016C15.3111 0.960155 14.5778 0.660154 13.7333 0.660154H3.13333C2.28889 0.660154 1.55556 0.960155 0.933333 1.56016C0.311111 2.16015 0 2.9046 0 3.79349V17.5268C0 18.4157 0.311111 19.1602 0.933333 19.7602C1.55556 20.3602 2.28889 20.6602 3.13333 20.6602H13.7333C14.5778 20.6602 15.3111 20.3602 15.9333 19.7602C16.5556 19.1602 16.8667 18.4157 16.8667 17.5268C16.8667 17.3046 16.7889 17.1157 16.6333 16.9602C16.4778 16.8046 16.2889 16.7268 16.0667 16.7268C15.8444 16.7268 15.6667 16.8046 15.5333 16.9602C15.4 17.1157 15.3333 17.3046 15.3333 17.5268C15.3333 17.9713 15.1778 18.349 14.8667 18.6602C14.5556 18.9713 14.1778 19.1268 13.7333 19.1268H3.13333C2.73333 19.1268 2.37778 18.9713 2.06667 18.6602C1.75556 18.349 1.6 17.9713 1.6 17.5268C1.6 17.0824 1.75556 16.7157 2.06667 16.4268C2.37778 16.1379 2.73333 15.9935 3.13333 15.9935ZM1.6 3.79349C1.6 3.34904 1.75556 2.97127 2.06667 2.66016C2.37778 2.34904 2.73333 2.19349 3.13333 2.19349H13.7333C14.1778 2.19349 14.5556 2.34904 14.8667 2.66016C15.1778 2.97127 15.3333 3.34904 15.3333 3.79349V12.8602C15.3333 13.3046 15.1778 13.6713 14.8667 13.9602C14.5556 14.249 14.1778 14.3935 13.7333 14.3935H3.13333C2.6 14.3935 2.08889 14.549 1.6 14.8602V3.79349ZM4.73333 5.92682C4.73333 5.7046 4.81111 5.51571 4.96667 5.36016C5.12222 5.2046 5.31111 5.12682 5.53333 5.12682H11.4C11.6222 5.12682 11.8111 5.2046 11.9667 5.36016C12.1222 5.51571 12.2 5.7046 12.2 5.92682C12.2 6.14904 12.1222 6.33793 11.9667 6.49349C11.8111 6.64904 11.6222 6.72682 11.4 6.72682H5.53333C5.31111 6.72682 5.12222 6.64904 4.96667 6.49349C4.81111 6.33793 4.73333 6.14904 4.73333 5.92682Z" fill="#7F7E97"/>
</svg>
