<svg width="36" height="36" viewBox="0 0 36 36" fill="none" xmlns="http://www.w3.org/2000/svg">
<g id="Icon" clip-path="url(#clip0_8512_2093)">
<path id="Vector" d="M8.55 3.66361C7.92778 3.66361 7.42222 3.87749 7.03333 4.30527C6.64444 4.73305 6.45 5.23861 6.45 5.82194C6.45 6.40527 6.64444 6.91083 7.03333 7.33861C7.42222 7.76638 7.92778 7.98027 8.55 7.98027C9.17222 7.98027 9.69722 7.76638 10.125 7.33861C10.5528 6.91083 10.7667 6.40527 10.7667 5.82194C10.7667 5.23861 10.5528 4.73305 10.125 4.30527C9.69722 3.87749 9.17222 3.66361 8.55 3.66361ZM8.55 6.93027C8.23889 6.93027 7.96667 6.83305 7.73333 6.63861C7.5 6.44416 7.38333 6.19139 7.38333 5.88027C7.38333 5.56916 7.5 5.29694 7.73333 5.06361C7.96667 4.83027 8.23889 4.71361 8.55 4.71361C8.86111 4.71361 9.13333 4.83027 9.36667 5.06361C9.6 5.29694 9.71667 5.56916 9.71667 5.88027C9.71667 6.19139 9.6 6.44416 9.36667 6.63861C9.13333 6.83305 8.86111 6.93027 8.55 6.93027ZM10.7667 15.5636V13.5803C10.7667 13.4247 10.7083 13.2886 10.5917 13.1719C10.475 13.0553 10.3389 12.9969 10.1833 12.9969H5.05C4.89444 12.9969 4.75833 13.0553 4.64167 13.1719C4.525 13.2886 4.46667 13.4247 4.46667 13.5803V15.5636C4.46667 15.7192 4.525 15.8358 4.64167 15.9136C4.75833 15.9914 4.89444 16.0303 5.05 16.0303H10.1833C10.3389 16.0303 10.475 15.9914 10.5917 15.9136C10.7083 15.8358 10.7667 15.7192 10.7667 15.5636ZM9.71667 14.9803H5.51667V14.0469H9.71667V14.9803ZM32.35 4.48027H29.0833C28.4611 4.48027 28.0333 4.75249 27.8 5.29694H14.15V4.94694C14.15 4.71361 13.9944 4.55805 13.6833 4.48027L12.4 4.24694L13.1 3.19694C13.2556 2.96361 13.2556 2.73027 13.1 2.49694L11.9333 1.33027C11.7 1.09694 11.4667 1.05805 11.2333 1.21361L10.1833 1.9136L9.95 0.630272C9.87222 0.396938 9.67778 0.280273 9.36667 0.280273H7.73333C7.42222 0.280273 7.26667 0.396938 7.26667 0.630272L6.91667 1.9136L5.86667 1.21361C5.63333 1.05805 5.43889 1.09694 5.28333 1.33027L4 2.49694C3.84444 2.73027 3.84444 2.96361 4 3.19694L4.7 4.24694L3.41667 4.48027C3.18333 4.55805 3.06667 4.71361 3.06667 4.94694L2.95 5.29694C2.32778 5.29694 1.76389 5.54972 1.25833 6.05527C0.752778 6.56083 0.5 7.12472 0.5 7.74694V23.7303C0.5 24.4303 0.752778 25.0136 1.25833 25.4803C1.76389 25.9469 2.32778 26.1803 2.95 26.1803H4.93333C5.08889 27.1136 5.51667 27.8719 6.21667 28.4553C6.91667 29.0386 7.69445 29.3303 8.55 29.3303C9.09445 29.3303 9.6 29.2136 10.0667 28.9803L8.9 33.5303C8.74444 34.1525 8.88056 34.6192 9.30833 34.9303C9.73611 35.2414 10.2222 35.3386 10.7667 35.2219C11.3111 35.1053 11.6222 34.7747 11.7 34.2303L13.8 26.1803H15.4333V33.8803C15.4333 34.2692 15.5694 34.5997 15.8417 34.8719C16.1139 35.1442 16.4444 35.2803 16.8333 35.2803C17.2222 35.2803 17.5528 35.1442 17.825 34.8719C18.0972 34.5997 18.2333 34.2692 18.2333 33.8803V26.1803H19.8667L21.9667 34.2303C22.1222 34.7747 22.4528 35.1053 22.9583 35.2219C23.4639 35.3386 23.9306 35.2414 24.3583 34.9303C24.7861 34.6192 24.9222 34.1525 24.7667 33.5303L22.9 26.1803H30.7167C31.4167 26.1803 32 25.9469 32.4667 25.4803C32.9333 25.0136 33.1667 24.4303 33.1667 23.7303V12.6469C33.1667 12.4914 33.1083 12.3747 32.9917 12.2969C32.875 12.2192 32.7583 12.1803 32.6417 12.1803C32.525 12.1803 32.4083 12.2192 32.2917 12.2969C32.175 12.3747 32.1167 12.4914 32.1167 12.6469V23.7303C32.1167 24.1192 31.9806 24.4497 31.7083 24.7219C31.4361 24.9942 31.1056 25.1303 30.7167 25.1303H12.1667C12.0889 24.2747 11.7 23.5358 11 22.9136C10.3 22.2914 9.50278 21.9803 8.60833 21.9803C7.71389 21.9803 6.91667 22.2914 6.21667 22.9136C5.51667 23.5358 5.08889 24.2747 4.93333 25.1303H2.95C2.56111 25.1303 2.23056 24.9942 1.95833 24.7219C1.68611 24.4497 1.55 24.1192 1.55 23.7303V8.79694H3.88333C3.88333 8.9525 3.92222 9.06916 4 9.14694L5.28333 10.3136C5.43889 10.5469 5.63333 10.5858 5.86667 10.4303L6.91667 9.73027L7.26667 11.0136C7.26667 11.2469 7.42222 11.3636 7.73333 11.3636H9.36667C9.67778 11.3636 9.87222 11.2469 9.95 11.0136L10.1833 9.73027L11.2333 10.4303C11.4667 10.5858 11.7 10.5469 11.9333 10.3136L13.1 9.14694C13.1778 9.06916 13.2167 8.9525 13.2167 8.79694H27.45L22.6667 13.5803L20.2167 11.1303C19.9833 10.9747 19.7306 10.8969 19.4583 10.8969C19.1861 10.8969 18.9722 10.9747 18.8167 11.1303L17.1833 12.7636C17.1056 12.8414 17.0667 12.9581 17.0667 13.1136C17.0667 13.2692 17.1056 13.3858 17.1833 13.4636C17.2611 13.5414 17.3778 13.5803 17.5333 13.5803C17.6889 13.5803 17.8056 13.5414 17.8833 13.4636L19.5167 11.9469L21.9667 14.3969C22.1222 14.5525 22.3361 14.6303 22.6083 14.6303C22.8806 14.6303 23.1333 14.5525 23.3667 14.3969L30.25 7.39694C30.4056 7.24138 30.4444 7.04694 30.3667 6.81361C30.2889 6.58027 30.1333 6.46361 29.9 6.46361H29.0833C28.9278 6.46361 28.8111 6.38583 28.7333 6.23027C28.6556 6.07472 28.6556 5.91916 28.7333 5.76361C28.8111 5.60805 28.9278 5.53027 29.0833 5.53027H32.35C32.5056 5.53027 32.6222 5.58861 32.7 5.70527C32.7778 5.82194 32.8167 5.91916 32.8167 5.99694V9.26361C32.8167 9.41916 32.7583 9.53583 32.6417 9.61361C32.525 9.69139 32.4083 9.73027 32.2917 9.73027C32.175 9.73027 32.0778 9.69139 32 9.61361C31.9222 9.53583 31.8833 9.41916 31.8833 9.26361V8.44694C31.8833 8.21361 31.7667 8.05805 31.5333 7.98027C31.3 7.9025 31.1056 7.94139 30.95 8.09694L22.6667 16.3803L20.2167 13.9303C19.9833 13.7747 19.7306 13.6969 19.4583 13.6969C19.1861 13.6969 18.9722 13.7747 18.8167 13.9303L14.6167 18.1303C14.4611 18.2858 14.2861 18.3442 14.0917 18.3053C13.8972 18.2664 13.7806 18.1497 13.7417 17.9553C13.7028 17.7608 13.7611 17.6247 13.9167 17.5469L16.1333 15.2136C16.2889 15.1358 16.3667 15.0192 16.3667 14.8636C16.3667 14.7081 16.3083 14.5719 16.1917 14.4553C16.075 14.3386 15.9583 14.2803 15.8417 14.2803C15.725 14.2803 15.5889 14.3581 15.4333 14.5136L13.2167 16.7303C12.9056 17.0414 12.75 17.4108 12.75 17.8386C12.75 18.2664 12.9056 18.6164 13.2167 18.8886C13.5278 19.1608 13.8778 19.2969 14.2667 19.2969C14.6556 19.2969 15.0056 19.1803 15.3167 18.9469L19.5167 14.7469L21.9667 17.1969C22.1222 17.3525 22.3361 17.4303 22.6083 17.4303C22.8806 17.4303 23.1333 17.3525 23.3667 17.1969L30.8333 9.61361C30.9111 9.92472 31.0861 10.1969 31.3583 10.4303C31.6306 10.6636 31.9611 10.7803 32.35 10.7803C32.7389 10.7803 33.0889 10.6247 33.4 10.3136C33.7111 10.0025 33.8667 9.6525 33.8667 9.26361V5.99694C33.8667 5.60805 33.7111 5.25805 33.4 4.94694C33.0889 4.63583 32.7389 4.48027 32.35 4.48027ZM10.7667 33.9969C10.6889 34.2303 10.5139 34.3275 10.2417 34.2886C9.96945 34.2497 9.83333 34.0747 9.83333 33.7636L11.35 28.0469C11.8167 27.5025 12.0889 26.8803 12.1667 26.1803H12.75L10.7667 33.9969ZM17.1833 33.8803C17.1833 34.1136 17.0667 34.2303 16.8333 34.2303C16.6 34.2303 16.4833 34.1136 16.4833 33.8803V26.1803H17.1833V33.8803ZM23.8333 33.7636C23.9111 34.0747 23.7944 34.2497 23.4833 34.2886C23.1722 34.3275 22.9778 34.2303 22.9 33.9969L20.9167 26.1803H21.85L23.8333 33.7636ZM7.96667 23.1469C8.2 23.0692 8.39444 23.0303 8.55 23.0303C9.25 23.0303 9.87222 23.2831 10.4167 23.7886C10.9611 24.2942 11.2333 24.9358 11.2333 25.7136C11.2333 26.4136 10.9611 27.0164 10.4167 27.5219C9.87222 28.0275 9.25 28.2803 8.55 28.2803C7.85 28.2803 7.24722 28.0275 6.74167 27.5219C6.23611 27.0164 5.98333 26.4331 5.98333 25.7719C5.98333 25.1108 6.15833 24.5469 6.50833 24.0803C6.85833 23.6136 7.34444 23.3025 7.96667 23.1469ZM1.55 7.74694C1.55 7.35805 1.68611 7.0275 1.95833 6.75527C2.23056 6.48305 2.56111 6.34694 2.95 6.34694L3.06667 6.69694C3.06667 6.93027 3.18333 7.08583 3.41667 7.16361L4.7 7.39694L4.46667 7.86361H1.55V7.74694ZM11.4667 9.38027L10.5333 8.68027C10.3778 8.6025 10.125 8.62194 9.775 8.73861C9.425 8.85527 9.25 9.03027 9.25 9.26361L9.01667 10.3136H8.08333L7.85 9.26361C7.85 9.03027 7.69445 8.85527 7.38333 8.73861C7.07222 8.62194 6.8 8.6025 6.56667 8.68027L5.63333 9.38027L5.05 8.68027L5.63333 7.74694C5.78889 7.59138 5.80833 7.35805 5.69167 7.04694C5.575 6.73583 5.4 6.54138 5.16667 6.46361L4 6.23027V5.41361L5.16667 5.18027C5.4 5.1025 5.575 4.90805 5.69167 4.59694C5.80833 4.28583 5.78889 4.0525 5.63333 3.89694L5.05 2.96361L5.63333 2.38027L6.56667 2.96361C6.8 3.04139 7.07222 3.02194 7.38333 2.90527C7.69445 2.7886 7.85 2.61361 7.85 2.38027L8.08333 1.33027H9.01667L9.25 2.38027C9.25 2.61361 9.425 2.7886 9.775 2.90527C10.125 3.02194 10.3778 3.04139 10.5333 2.96361L11.4667 2.38027L12.05 2.96361L11.4667 3.89694C11.3111 4.0525 11.3111 4.28583 11.4667 4.59694C11.6222 4.90805 11.7778 5.1025 11.9333 5.18027L13.1 5.41361V6.23027L11.9333 6.46361C11.7778 6.54138 11.6222 6.73583 11.4667 7.04694C11.3111 7.35805 11.3111 7.59138 11.4667 7.74694L12.05 8.68027L11.4667 9.38027ZM28.7333 7.51361L28.3833 7.86361H12.6333L12.4 7.39694L13.6833 7.16361C13.9944 7.08583 14.15 6.93027 14.15 6.69694V6.34694H27.5667C27.6444 6.65805 27.7806 6.91083 27.975 7.10527C28.1694 7.29972 28.4222 7.43583 28.7333 7.51361ZM29.55 21.7469H19.8667C19.7111 21.7469 19.575 21.8053 19.4583 21.9219C19.3417 22.0386 19.2833 22.1553 19.2833 22.2719C19.2833 22.3886 19.3417 22.5053 19.4583 22.6219C19.575 22.7386 19.7111 22.7969 19.8667 22.7969H29.55C29.7056 22.7969 29.8222 22.7386 29.9 22.6219C29.9778 22.5053 30.0167 22.3886 30.0167 22.2719C30.0167 22.1553 29.9778 22.0386 29.9 21.9219C29.8222 21.8053 29.7056 21.7469 29.55 21.7469ZM29.55 19.5303H23.8333C23.6778 19.5303 23.5417 19.5692 23.425 19.6469C23.3083 19.7247 23.25 19.8414 23.25 19.9969C23.25 20.1525 23.3083 20.2886 23.425 20.4053C23.5417 20.5219 23.6778 20.5803 23.8333 20.5803H29.55C29.7056 20.5803 29.8222 20.5219 29.9 20.4053C29.9778 20.2886 30.0167 20.1525 30.0167 19.9969C30.0167 19.8414 29.9778 19.7247 29.9 19.6469C29.8222 19.5692 29.7056 19.5303 29.55 19.5303ZM5.05 16.9636C4.89444 16.9636 4.75833 17.0219 4.64167 17.1386C4.525 17.2553 4.46667 17.3719 4.46667 17.4886C4.46667 17.6053 4.525 17.7219 4.64167 17.8386C4.75833 17.9553 4.89444 18.0136 5.05 18.0136H8.55C8.70556 18.0136 8.84167 17.9553 8.95833 17.8386C9.075 17.7219 9.13333 17.6053 9.13333 17.4886C9.13333 17.3719 9.075 17.2553 8.95833 17.1386C8.84167 17.0219 8.70556 16.9636 8.55 16.9636H5.05ZM8.55 26.8803C8.70556 26.8803 8.84167 26.8414 8.95833 26.7636C9.075 26.6858 9.13333 26.5692 9.13333 26.4136V25.0136C9.13333 24.8581 9.075 24.7219 8.95833 24.6053C8.84167 24.4886 8.70556 24.4303 8.55 24.4303C8.39444 24.4303 8.27778 24.4886 8.2 24.6053C8.12222 24.7219 8.08333 24.8581 8.08333 25.0136V26.4136C8.08333 26.5692 8.12222 26.6858 8.2 26.7636C8.27778 26.8414 8.39444 26.8803 8.55 26.8803Z" fill="white"/>
</g>
<defs>
<clipPath id="clip0_8512_2093">
<rect width="35" height="35" fill="white" transform="matrix(1 0 0 -1 0.5 35.2803)"/>
</clipPath>
</defs>
</svg>
