<?xml version="1.0" encoding="UTF-8"?>
<!DOCTYPE svg PUBLIC "-//W3C//DTD SVG 1.1//EN" "http://www.w3.org/Graphics/SVG/1.1/DTD/svg11.dtd">
<!-- Creator: CorelDRAW -->
<svg xmlns="http://www.w3.org/2000/svg" xml:space="preserve" width="0.134642in" height="0.213335in" version="1.1" style="shape-rendering:geometricPrecision; text-rendering:geometricPrecision; image-rendering:optimizeQuality; fill-rule:evenodd; clip-rule:evenodd"
viewBox="0 0 134.77 213.54"
 xmlns:xlink="http://www.w3.org/1999/xlink"
 xmlns:xodm="http://www.corel.com/coreldraw/odm/2003">
 <defs>
  <style type="text/css">
   <![CDATA[
    .fil0 {fill:#FEFEFE}
   ]]>
  </style>
 </defs>
 <g id="Camada_x0020_1">
  <metadata id="CorelCorpID_0Corel-Layer"/>
  <path class="fil0" d="M71.49 106.77c-1.24,1.85 -4.38,4.59 -6.15,6.36l-57.76 57.76c-2.35,2.35 -4.32,3.86 -5.89,7.04 -1.6,3.25 -1.97,6.6 -1.5,10.55 0.85,6.98 6.24,11.08 10.31,15.14 7.35,7.35 8.86,9.91 19.29,9.91 3.14,0 6.74,-1.91 9.08,-3.85 6.37,-5.26 40.06,-39.66 46.7,-46.3l39.62 -39.62c4.4,-4.4 9.58,-8.63 9.58,-17 0,-3.4 -1.4,-7.57 -2.97,-9.84 -2.45,-3.54 -28.66,-29.21 -32.88,-33.43 -2.33,-2.33 -4.35,-4.35 -6.67,-6.68 -2.37,-2.37 -4.5,-4.08 -6.88,-6.46 -8.93,-8.93 -17.55,-17.55 -26.48,-26.49l-19.8 -19.82c-2.51,-2.44 -6.19,-3.78 -9.95,-4.05l-2.94 0c-3.44,0.26 -6.68,1.41 -8.82,3.43 -6.23,5.89 -16.19,13.43 -17.18,21.62 -1.02,8.37 2.57,13.22 6.97,17.6 12.89,12.82 25.47,26.04 38.79,38.36l25.54 25.76z"/>
 </g>
</svg>
