<svg width="21" height="21" viewBox="0 0 21 21" fill="none" xmlns="http://www.w3.org/2000/svg">
<path d="M10.9766 20.6602C9.15434 20.6602 7.47656 20.2157 5.94323 19.3268C4.4099 18.4379 3.19878 17.2268 2.3099 15.6935C1.42101 14.1602 0.976562 12.4824 0.976562 10.6602C0.976562 8.83793 1.42101 7.16016 2.3099 5.62682C3.19878 4.09349 4.4099 2.88238 5.94323 1.99349C7.47656 1.1046 9.15434 0.660154 10.9766 0.660154C12.7988 0.660154 14.4766 1.1046 16.0099 1.99349C17.5432 2.88238 18.7543 4.09349 19.6432 5.62682C20.5321 7.16016 20.9766 8.83793 20.9766 10.6602C20.9766 12.4824 20.5321 14.1602 19.6432 15.6935C18.7543 17.2268 17.5432 18.4379 16.0099 19.3268C14.4766 20.2157 12.7988 20.6602 10.9766 20.6602ZM10.9766 1.92682C9.37656 1.92682 7.9099 2.31571 6.57656 3.09349C5.24323 3.87127 4.18767 4.92682 3.4099 6.26016C2.63212 7.59349 2.24323 9.06016 2.24323 10.6602C2.24323 12.2602 2.63212 13.7268 3.4099 15.0602C4.18767 16.3935 5.24323 17.449 6.57656 18.2268C7.9099 19.0046 9.37656 19.3935 10.9766 19.3935C12.5766 19.3935 14.0432 19.0046 15.3766 18.2268C16.7099 17.449 17.7655 16.3935 18.5432 15.0602C19.321 13.7268 19.7099 12.2602 19.7099 10.6602C19.7099 9.06016 19.321 7.59349 18.5432 6.26016C17.7655 4.92682 16.7099 3.87127 15.3766 3.09349C14.0432 2.31571 12.5766 1.92682 10.9766 1.92682ZM15.3766 16.0602C15.1988 16.0602 15.0432 15.9935 14.9099 15.8602L10.5099 11.5268C10.421 11.3935 10.3766 11.2379 10.3766 11.0602V5.26016C10.3766 5.08238 10.4321 4.92682 10.5432 4.79349C10.6543 4.66016 10.7988 4.59349 10.9766 4.59349C11.1543 4.59349 11.2988 4.66016 11.4099 4.79349C11.521 4.92682 11.5766 5.08238 11.5766 5.26016V10.7935L15.7766 14.9935C15.9099 15.1268 15.9766 15.2824 15.9766 15.4602C15.9766 15.6379 15.921 15.7824 15.8099 15.8935C15.6988 16.0046 15.5543 16.0602 15.3766 16.0602Z" fill="#7F7E97"/>
</svg>
