<svg width="401" height="394" viewBox="0 0 401 394" fill="none" xmlns="http://www.w3.org/2000/svg">
<g clip-path="url(#clip0_8513_553)">
<path d="M25 74.3118C24.966 33.4427 58.0694 0.284302 98.9385 0.250324L325.998 0.0615496C366.867 0.0275716 400.026 33.1309 400.06 74C400.094 114.869 366.99 148.027 326.121 148.061L99.0615 148.25C58.1925 148.284 25.034 115.18 25 74.3118Z" fill="#1BCBE3"/>
<path d="M21.1641 199.323C21.1306 159.006 53.7867 126.295 94.1034 126.262L306.103 126.086C346.42 126.052 379.13 158.708 379.164 199.025C379.197 239.342 346.541 272.052 306.224 272.086L94.2248 272.262C53.908 272.295 21.1977 239.639 21.1641 199.323Z" fill="#1BCBE3"/>
<path d="M0.265651 318.34C0.231214 276.919 33.782 243.312 75.2033 243.278L325.203 243.07C366.625 243.036 400.231 276.586 400.266 318.008C400.3 359.429 366.749 393.036 325.328 393.07L75.328 393.278C33.9067 393.312 0.300088 359.762 0.265651 318.34Z" fill="#1BCBE3"/>
</g>
<defs>
<clipPath id="clip0_8513_553">
<rect width="401" height="394" fill="white"/>
</clipPath>
</defs>
</svg>
