<svg width="21" height="17" viewBox="0 0 21 17" fill="none" xmlns="http://www.w3.org/2000/svg">
<path d="M19.2599 4.12663C16.9043 3.14885 14.571 2.14885 12.2599 1.12663C11.771 0.948849 11.2599 0.859961 10.7266 0.859961C10.1932 0.859961 9.68212 0.948849 9.19323 1.12663L2.19323 4.12663C1.74878 4.34885 1.39323 4.64885 1.12656 5.02663C0.859896 5.4044 0.726562 5.83774 0.726562 6.32663C0.726562 6.81552 0.859896 7.24885 1.12656 7.62663C1.39323 8.00441 1.74878 8.28218 2.19323 8.45996L3.8599 9.19329V14.1266C3.8599 14.7933 4.08212 15.3488 4.52656 15.7933C4.97101 16.2377 5.52656 16.46 6.19323 16.46H15.2599C15.9266 16.46 16.4821 16.2377 16.9266 15.7933C17.371 15.3488 17.5932 14.7933 17.5932 14.1266V12.06C17.5932 11.8377 17.5155 11.6488 17.3599 11.4933C17.2043 11.3377 17.0266 11.26 16.8266 11.26C16.6266 11.26 16.4488 11.3377 16.2932 11.4933C16.1377 11.6488 16.0599 11.8377 16.0599 12.06V14.1266C16.0599 14.3488 15.9821 14.5377 15.8266 14.6933C15.671 14.8488 15.4821 14.9266 15.2599 14.9266H6.19323C5.97101 14.9266 5.78212 14.8488 5.62656 14.6933C5.47101 14.5377 5.39323 14.3488 5.39323 14.1266V9.85996L9.19323 11.46C9.68212 11.6822 10.1932 11.7933 10.7266 11.7933C11.2599 11.7933 11.771 11.6822 12.2599 11.46L19.2599 8.45996C19.7043 8.28218 20.0599 8.00441 20.3266 7.62663C20.5932 7.24885 20.7266 6.81552 20.7266 6.32663C20.7266 5.83774 20.5932 5.4044 20.3266 5.02663C20.0599 4.64885 19.7043 4.34885 19.2599 4.12663ZM18.6599 7.05996C16.3043 8.03774 13.9488 9.03774 11.5932 10.06C11.3266 10.1488 11.0377 10.1933 10.7266 10.1933C10.4155 10.1933 10.1266 10.1488 9.8599 10.06L2.79323 7.05996C2.61545 6.97107 2.48212 6.85996 2.39323 6.72663C2.30434 6.59329 2.2599 6.44885 2.2599 6.29329C2.2599 6.13774 2.30434 5.99329 2.39323 5.85996C2.48212 5.72663 2.61545 5.63774 2.79323 5.59329L9.8599 2.59329C10.1266 2.45996 10.4155 2.39329 10.7266 2.39329C11.0377 2.39329 11.3266 2.45996 11.5932 2.59329L18.6599 5.59329C18.8377 5.63774 18.971 5.72663 19.0599 5.85996C19.1488 5.99329 19.1932 6.13774 19.1932 6.29329C19.1932 6.44885 19.1488 6.59329 19.0599 6.72663C18.971 6.85996 18.8377 6.97107 18.6599 7.05996ZM19.9266 9.92663C19.7043 9.92663 19.5266 10.0044 19.3932 10.16C19.2599 10.3155 19.1932 10.5044 19.1932 10.7266V14.1266C19.1932 14.3488 19.2599 14.5377 19.3932 14.6933C19.5266 14.8488 19.7043 14.9266 19.9266 14.9266C20.1488 14.9266 20.3377 14.8488 20.4932 14.6933C20.6488 14.5377 20.7266 14.3488 20.7266 14.1266V10.7266C20.7266 10.5044 20.6488 10.3155 20.4932 10.16C20.3377 10.0044 20.1488 9.92663 19.9266 9.92663Z" fill="#7F7E97"/>
</svg>
